<?xml version="1.0" encoding="utf-8" ?>
<svg xmlns="http://www.w3.org/2000/svg" xmlns:xlink="http://www.w3.org/1999/xlink" width="1024" height="1024">
	<path fill="#143149" d="M0 0L1024 0L1024 1024L0 1024L0 0Z"/>
	<path fill="#143149" d="M388.891 377.383C396.626 375.357 404.278 372.792 411.938 370.48Q444.45 360.509 476.824 350.098C483.982 347.852 501.82 341.237 507.782 341.09C516.973 345.72 528.442 347.943 538.317 351.084C566.792 360.139 595.66 368.284 623.953 377.853L623.778 419.098C623.724 429.567 623.91 440.127 622.683 450.537C617.724 492.598 592.538 532.482 563.006 561.769C551.375 573.303 539.006 583.288 525.654 592.769C519.945 596.823 512.92 600.373 507.751 604.948C503.384 604.864 471.877 581.585 466.839 577.406Q457.958 569.937 449.814 561.671C421.53 533.425 394.258 494.111 389.561 453.449C388.196 441.64 388.652 429.681 388.76 417.819Q388.95 397.601 388.891 377.383Z"/>
	<path fill="#FEFDFD" d="M388.891 377.383C396.626 375.357 404.278 372.792 411.938 370.48Q444.45 360.509 476.824 350.098C483.982 347.852 501.82 341.237 507.782 341.09C507.792 345.72 508.706 354.496 507.318 358.654L433.352 382.312C424.298 385.283 414.975 387.938 406.056 391.25L406.047 426.471C406.045 434.86 405.756 443.373 406.772 451.714C411.308 488.96 436.714 524.194 462.635 550.114C473.604 561.083 494.417 578.586 508.121 585.051C508.034 591.499 508.565 598.592 507.751 604.948C503.384 604.864 471.877 581.585 466.839 577.406Q457.958 569.937 449.814 561.671C421.53 533.425 394.258 494.111 389.561 453.449C388.196 441.64 388.652 429.681 388.76 417.819Q388.95 397.601 388.891 377.383Z"/>
	<path fill="#9CD4FD" d="M507.782 341.09C516.973 345.72 528.442 347.943 538.317 351.084C566.792 360.139 595.66 368.284 623.953 377.853L623.778 419.098C623.724 429.567 623.91 440.127 622.683 450.537C617.724 492.598 592.538 532.482 563.006 561.769C551.375 573.303 539.006 583.288 525.654 592.769C519.945 596.823 512.92 600.373 507.751 604.948C508.565 598.592 508.034 591.499 508.121 585.051C518.512 580.421 545.546 556.673 554.44 547.77C580.067 522.116 601.943 485.359 606.416 448.998C608.708 430.364 607.505 409.227 607.515 390.313C597.367 388.449 586.93 384.394 577.027 381.322Q542.055 370.35 507.318 358.654C508.706 354.496 507.792 345.72 507.782 341.09Z"/>
	<path fill="#14A99D" d="M426.013 405.861C436.147 402.842 504.321 380.115 507.716 380.58C519.436 385.739 532.798 389.002 545.044 392.877C558.798 397.23 572.675 402.367 586.617 405.964L586.638 424.364C586.635 435.169 586.324 445.515 584.06 456.144C577.891 485.104 558.829 513.079 538.073 533.864C533.694 538.25 529.192 542.47 524.338 546.331C518.71 550.808 512.539 555.052 507.366 560.03L506.726 560.427C501.076 558.862 481.221 539.863 476.102 534.736C456.736 515.344 430.613 480.477 426.543 453.092C425.61 446.816 425.987 440.254 425.997 433.913L426.013 405.861Z"/>
	<path fill="#FEFDFD" d="M426.013 405.861C436.147 402.842 504.321 380.115 507.716 380.58C507.755 385.055 508.712 395.059 507.151 398.939C485.505 404.498 464.528 413.012 442.959 418.993C443.024 427.807 441.912 443.881 443.468 451.677C444.345 456.066 446.473 460.453 448.303 464.522Q450.017 468.317 451.903 472.03Q453.789 475.743 455.842 479.366Q457.895 482.99 460.111 486.515Q462.327 490.041 464.702 493.462Q467.077 496.883 469.605 500.192Q472.133 503.501 474.81 506.692Q477.486 509.882 480.306 512.947Q483.125 516.012 486.081 518.945C490.307 523.113 501.375 533.968 506.4 535.486C506.724 535.922 507.13 536.308 507.373 536.793C508.311 538.661 507.597 557.03 507.366 560.03L506.726 560.427C501.076 558.862 481.221 539.863 476.102 534.736C456.736 515.344 430.613 480.477 426.543 453.092C425.61 446.816 425.987 440.254 425.997 433.913L426.013 405.861Z"/>
	<path fill="#9CD4FD" d="M507.716 380.58C519.436 385.739 532.798 389.002 545.044 392.877C558.798 397.23 572.675 402.367 586.617 405.964L586.638 424.364C570.706 418.625 554.267 413.747 538.136 408.541C528.137 405.314 517.672 401.066 507.4 399.023L507.151 398.939C508.712 395.059 507.755 385.055 507.716 380.58Z"/>
	<path fill="#FEFDFD" d="M507.652 469.585Q519.739 457.576 531.619 445.362C536.585 440.249 541.406 434.705 546.749 430.002C548.247 428.683 549.967 427.194 551.92 426.654C553.997 426.079 556.294 426.195 558.138 427.369C560.775 429.05 561.663 432.171 562.328 435.015C564.909 436.804 565.781 438.351 566.368 441.449C568.462 452.496 563.239 461.724 557.091 470.369C545.211 487.074 531.877 502.639 519.682 519.092C515.472 524.773 511.08 530.449 507.407 536.495C507.375 533.278 507.472 530.016 507.035 526.824Q507.303 510.598 507 494.373L501.053 499.95C495.087 495.281 469.033 476.006 467.684 470.518C467.241 468.715 467.709 467.021 468.763 465.549C470.134 463.636 472.627 461.824 475.009 461.523C481.084 460.755 494.15 473.951 499.098 478.063C502.045 475.322 504.859 472.483 507.652 469.585Z"/>
	<path fill="#0B8480" d="M562.328 435.015C564.909 436.804 565.781 438.351 566.368 441.449C568.462 452.496 563.239 461.724 557.091 470.369C545.211 487.074 531.877 502.639 519.682 519.092C515.472 524.773 511.08 530.449 507.407 536.495C507.375 533.278 507.472 530.016 507.035 526.824Q507.303 510.598 507 494.373L542.647 458.452C548.507 452.525 555.648 446.451 560.489 439.724C561.515 438.298 561.92 436.7 562.328 435.015Z"/>
	<path fill="#FEFDFD" d="M722.134 616.637L735.467 616.713C735.427 626.225 736.778 665.993 734.221 671.92C732.246 676.5 728.121 679.534 723.567 681.282C715.929 684.214 707.848 683.711 700.401 680.503C695.063 677.385 691.145 673.87 689.191 667.798C686.931 660.774 687.66 651.123 691.254 644.67Q691.514 644.202 691.797 643.747Q692.08 643.293 692.386 642.853Q692.692 642.414 693.02 641.991Q693.348 641.567 693.697 641.161Q694.046 640.755 694.415 640.367Q694.784 639.979 695.173 639.611Q695.561 639.242 695.967 638.893Q696.374 638.545 696.798 638.218Q697.222 637.89 697.661 637.585Q698.101 637.279 698.556 636.997Q699.011 636.714 699.479 636.455Q699.948 636.196 700.429 635.961Q700.91 635.726 701.403 635.515Q701.895 635.305 702.397 635.12Q702.9 634.935 703.411 634.775Q703.922 634.616 704.441 634.483Q704.997 634.341 705.56 634.226Q706.123 634.112 706.69 634.025Q707.258 633.938 707.829 633.879Q708.4 633.82 708.974 633.79Q709.547 633.759 710.121 633.756Q710.695 633.754 711.269 633.779Q711.843 633.805 712.415 633.858Q712.986 633.912 713.555 633.994Q714.123 634.075 714.687 634.185Q715.25 634.294 715.808 634.431Q716.366 634.568 716.916 634.732Q717.466 634.896 718.008 635.088Q718.549 635.279 719.081 635.496Q719.612 635.713 720.133 635.956Q720.653 636.199 721.161 636.468Q721.668 636.736 722.162 637.029C722.076 630.234 722.131 623.433 722.134 616.637Z"/>
	<path fill="#143149" d="M710.759 644.566C715.275 644.326 718.478 645.517 722.226 647.991C722.146 653.59 724.147 664.867 720.496 669.357C718.688 671.58 715.951 671.7 713.33 672.05C711.625 671.794 709.865 671.516 708.267 670.838C705.228 669.548 702.942 666.45 701.932 663.385C700.622 659.405 700.832 654.49 702.798 650.755C704.639 647.259 707.108 645.759 710.759 644.566Z"/>
	<path fill="#FEFDFD" d="M464.472 633.603Q465.487 633.545 466.502 633.507C472.003 633.303 477.409 634.351 481.484 638.318C490.044 646.65 487.404 670.453 487.318 681.771L474.134 681.792C474.05 674.014 476.404 653.934 471.535 647.909C470.067 646.092 467.968 645.156 465.661 645.004C463.055 644.833 460.299 645.451 458.392 647.33C456.812 648.887 456.019 650.996 455.649 653.147C454.488 659.88 455.533 674.248 455.59 681.876L442.508 681.95L442.501 661.504C442.564 656.877 442.861 650.484 439.329 646.944C437.902 645.514 436.032 645.027 434.057 645.035C431.382 645.045 428.69 645.859 426.796 647.819C421.977 652.805 423.928 674.599 423.953 681.981L410.596 682.011C410.393 666.195 410.609 650.315 410.782 634.498L422.356 634.528C422.485 635.719 422.441 638.162 422.918 639.206C423.022 639.434 423.218 639.61 423.334 639.833C423.37 639.902 423.355 639.987 423.365 640.064C428.081 636.458 432.22 633.411 438.489 633.66C444.305 633.891 448.341 636.902 452.188 640.926C455.958 636.927 459.235 635.005 464.472 633.603Z"/>
	<path fill="#FEFDFD" d="M340.961 633.771Q341.569 633.677 342.181 633.613Q342.793 633.549 343.407 633.515Q344.022 633.481 344.637 633.478Q345.253 633.474 345.867 633.501Q346.482 633.528 347.095 633.585Q347.707 633.642 348.317 633.729Q348.926 633.816 349.53 633.933Q350.134 634.051 350.731 634.197Q351.329 634.344 351.919 634.52Q352.508 634.696 353.089 634.9Q353.669 635.105 354.238 635.338Q354.808 635.571 355.365 635.832Q355.923 636.092 356.466 636.38Q357.01 636.668 357.539 636.982Q358.068 637.297 358.581 637.637Q359.094 637.977 359.59 638.342Q360.085 638.706 360.562 639.095Q361.039 639.484 361.496 639.896Q361.954 640.307 362.39 640.741Q362.826 641.175 363.241 641.63Q363.656 642.084 364.047 642.559Q364.439 643.034 364.807 643.527Q365.174 644.02 365.517 644.531Q365.861 645.042 366.178 645.569Q366.496 646.096 366.787 646.638Q367.078 647.18 367.342 647.736Q367.606 648.292 367.843 648.86Q368.079 649.428 368.287 650.007Q368.495 650.586 368.675 651.175Q368.854 651.763 369.005 652.36Q369.155 652.957 369.275 653.56Q369.396 654.163 369.487 654.772Q369.578 655.381 369.639 655.993Q369.699 656.605 369.73 657.22Q369.76 657.834 369.761 658.45Q369.761 659.065 369.731 659.68Q369.701 660.294 369.641 660.906Q369.58 661.519 369.49 662.128Q369.4 662.736 369.279 663.34Q369.159 663.943 369.01 664.54Q368.86 665.137 368.681 665.725Q368.502 666.314 368.294 666.893Q368.086 667.473 367.85 668.041Q367.614 668.609 367.351 669.165Q367.087 669.721 366.796 670.263Q366.506 670.806 366.188 671.333Q365.871 671.86 365.529 672.371Q365.186 672.882 364.819 673.376Q364.451 673.87 364.06 674.344Q363.669 674.819 363.255 675.274Q362.841 675.73 362.405 676.164Q361.968 676.598 361.512 677.01Q361.055 677.422 360.578 677.811Q360.101 678.2 359.606 678.566Q359.111 678.931 358.598 679.271Q358.086 679.612 357.557 679.926Q357.028 680.241 356.485 680.529Q355.941 680.818 355.384 681.079Q354.827 681.34 354.258 681.574Q353.688 681.807 353.108 682.012Q352.528 682.217 351.938 682.394Q351.349 682.57 350.751 682.717Q350.154 682.864 349.55 682.982Q348.946 683.099 348.337 683.187Q347.732 683.274 347.123 683.331Q346.515 683.389 345.904 683.416Q345.294 683.444 344.683 683.441Q344.071 683.439 343.461 683.407Q342.851 683.375 342.243 683.312Q341.635 683.25 341.03 683.159Q340.426 683.067 339.827 682.946Q339.228 682.825 338.635 682.674Q338.043 682.524 337.459 682.345Q336.874 682.166 336.299 681.958Q335.724 681.751 335.16 681.516Q334.596 681.28 334.044 681.018Q333.492 680.755 332.954 680.466Q332.416 680.176 331.892 679.861Q331.368 679.546 330.861 679.205Q330.353 678.865 329.863 678.5Q329.373 678.135 328.901 677.746Q328.429 677.358 327.977 676.947Q327.524 676.536 327.093 676.103Q326.661 675.67 326.251 675.217Q325.841 674.764 325.454 674.291Q325.066 673.818 324.703 673.327Q324.339 672.836 324 672.327Q323.66 671.819 323.346 671.294Q323.032 670.77 322.744 670.231Q322.456 669.692 322.195 669.139Q321.934 668.587 321.7 668.022Q321.466 667.457 321.26 666.882Q321.054 666.306 320.876 665.722Q320.698 665.137 320.549 664.544Q320.401 663.951 320.281 663.352Q320.161 662.752 320.071 662.148Q319.981 661.543 319.92 660.935Q319.86 660.327 319.829 659.717Q319.798 659.106 319.797 658.495Q319.796 657.884 319.825 657.273Q319.854 656.663 319.913 656.054Q319.972 655.446 320.061 654.841Q320.149 654.236 320.267 653.637Q320.385 653.037 320.532 652.444Q320.68 651.85 320.855 651.265Q321.032 650.68 321.236 650.104Q321.44 649.528 321.673 648.962Q321.905 648.397 322.165 647.844Q322.425 647.29 322.711 646.75Q322.998 646.211 323.31 645.685Q323.623 645.16 323.961 644.651Q324.298 644.141 324.661 643.649Q325.023 643.157 325.409 642.683Q325.795 642.209 326.204 641.754Q326.612 641.3 327.043 640.866Q327.473 640.432 327.924 640.02Q328.376 639.607 328.846 639.218Q329.317 638.828 329.807 638.461Q330.296 638.095 330.802 637.753Q331.309 637.411 331.832 637.094Q332.354 636.778 332.892 636.487Q333.43 636.196 333.981 635.932Q334.532 635.668 335.095 635.431Q335.659 635.194 336.233 634.985Q336.808 634.776 337.391 634.595Q337.975 634.414 338.567 634.262Q339.159 634.11 339.758 633.987Q340.357 633.864 340.961 633.771Z"/>
	<path fill="#143149" d="M343.908 644.595C345.909 644.728 347.828 644.895 349.687 645.709C352.659 647.012 354.876 649.452 356.049 652.461C357.568 656.355 357.549 661.201 355.704 664.982C353.666 669.161 350.7 670.783 346.539 672.265C343.956 672.427 341.63 672.178 339.339 670.875C336.279 669.135 334.251 666.083 333.346 662.727C332.243 658.637 332.555 654.032 334.813 650.376C337.015 646.809 339.928 645.431 343.908 644.595Z"/>
	<path fill="#FEFDFD" d="M538.434 617.01L551.625 617.078L551.575 639.328C555.802 636.223 560.128 634.197 565.482 634.052C570.272 633.921 575.281 634.927 578.81 638.387C581.039 640.571 582.473 643.33 583.281 646.326C585.647 655.091 584.227 672.241 584.131 681.756L570.796 681.827L570.866 661.996C570.907 657.695 571.65 650.985 568.748 647.511C567.233 645.696 564.551 644.926 562.285 644.773C559.447 644.582 556.142 645.296 554.007 647.285C549.969 651.049 551.618 675.067 551.635 681.696L538.106 681.839L538.434 617.01Z"/>
	<path fill="#FEFDFD" d="M636.288 633.681C636.441 633.671 636.593 633.656 636.746 633.653C642.621 633.519 648.782 635.258 653.036 639.448C659.553 645.865 659.585 654.22 659.467 662.663L626.916 662.642C627.227 663.725 627.568 664.791 628.008 665.83C629.271 668.815 631.704 670.962 634.727 672.096C641.732 674.723 649.887 672.184 656.4 669.373Q656.419 674.512 656.49 679.651Q654.167 680.826 651.697 681.652Q649.228 682.477 646.665 682.936C638.835 684.354 629.791 683.347 623.21 678.599C617.876 674.75 614.763 668.83 613.848 662.389C612.887 655.623 614.294 648.478 618.566 643.036C623.056 637.318 629.253 634.605 636.288 633.681Z"/>
	<path fill="#143149" d="M634.049 644.105C636.719 643.826 639.261 643.626 641.741 644.873C645.461 646.745 646.551 650.735 647.692 654.398C644.775 654.569 641.799 654.489 638.875 654.523C635.962 654.519 628.664 655.539 626.385 653.929C625.774 653.497 625.955 653.026 625.905 652.353C627.257 648.677 630.66 645.789 634.049 644.105Z"/>
	<path fill="#FEFDFD" d="M278.95 617.013L320.591 616.98L320.596 628.278L292.49 628.178L292.46 646.387L315.021 646.399L315.016 654.125C315.067 655.154 314.989 655.793 314.645 656.765C307.624 657.782 299.631 657.042 292.496 657.025L292.439 681.956L279.041 681.974L278.95 617.013Z"/>
	<path fill="#FEFDFD" d="M511.6 633.664C518.616 633.232 524.156 634.775 530.174 638.33L526.913 646.957C523.521 645.62 519.857 644.427 516.249 643.845C513.494 643.401 511.064 643.259 508.791 645.083C507.737 645.929 507.216 646.784 507.048 648.129C508.693 653.077 521.653 654.972 526.058 658.011C528.97 660.021 531.041 662.851 531.571 666.4C532.084 669.844 531.245 674.5 529.068 677.283C525.322 682.072 518.412 682.948 512.772 683.517C506.008 683.589 500.138 682.401 494.018 679.506C494.79 676.495 495.809 673.513 496.726 670.541C501.058 672.227 505.654 673.685 510.333 673.866C512.921 673.967 516.424 673.796 518.286 671.725C519.214 670.693 519.218 669.913 519.144 668.606C516.173 664.061 506.647 662.999 501.913 660.068C498.674 658.063 495.487 655.1 494.776 651.181C494.105 647.476 495.669 643.515 497.814 640.55C501.226 635.833 506.125 634.463 511.6 633.664Z"/>
	<path fill="#FEFDFD" d="M666.991 616.959C671.44 616.897 675.895 616.942 680.344 616.935Q680.571 649.224 680.347 681.512L666.761 681.533C666.305 660.067 666.921 638.442 666.991 616.959Z"/>
	<path fill="#FEFDFD" d="M400.384 634.148L405.501 633.991L405.464 646.33C405.041 646.29 404.616 646.264 404.191 646.259C400.512 646.22 396.567 647.042 393.929 649.789C389.078 654.843 390.987 674.455 390.997 681.636L377.753 681.807C376.97 676.769 377.522 670.899 377.544 665.758L377.63 634.547L389.413 634.538C389.403 636.143 389.21 637.736 389.995 639.19C390.921 639.014 390.834 639.162 391.423 638.725C394.508 636.434 395.761 635.099 399.716 634.281L400.384 634.148Z"/>
	<path fill="#FEFDFD" d="M592.663 634.732Q599.207 634.71 605.75 634.846L605.874 681.572L592.553 681.591L592.663 634.732Z"/>
	<path fill="#FEFDFD" d="M595.335 614.099C597.327 613.905 599.769 613.592 601.699 614.204C603.684 614.834 605.882 616.566 606.8 618.457C607.497 619.896 607.472 621.18 606.879 622.641C606.05 624.684 604.259 625.946 602.351 626.853C600.713 627.261 598.8 627.658 597.118 627.333C595.033 626.93 592.86 625.25 591.76 623.461Q591.597 623.202 591.462 622.927Q591.326 622.652 591.22 622.366Q591.113 622.079 591.036 621.782Q590.959 621.486 590.912 621.184Q590.865 620.881 590.85 620.575Q590.834 620.27 590.85 619.964Q590.866 619.658 590.912 619.356Q590.959 619.053 591.036 618.757C591.64 616.391 593.334 615.26 595.335 614.099Z"/>
</svg>
